<svg width="32" height="32" viewBox="0 0 32 32" fill="none" xmlns="http://www.w3.org/2000/svg">
  <!-- Фоновый круг для золотого свечения -->
  <circle cx="16" cy="16" r="14" fill="url(#gold_gradient)" />
  
  <!-- Стилизованный Двуглавый Орел (упрощенный для иконки) -->
  <path d="M16 6L14 8L12 7L13 10L11 12L14 13L16 11L18 13L21 12L19 10L20 7L18 8L16 6Z" fill="#1A1A1A" />
  <path d="M11 12C11 12 9 14 8 18C7 22 9 24 11 25L13 22L11 20L11 12Z" fill="#1A1A1A" />
  <path d="M21 12C21 12 23 14 24 18C25 22 23 24 21 25L19 22L21 20L21 12Z" fill="#1A1A1A" />
  <path d="M16 11V26M13 22H19" stroke="#1A1A1A" stroke-width="1.5" stroke-linecap="round"/>

  <!-- Элемент "Связи" (Пульсирующая точка или волны) -->
  <circle cx="16" cy="16" r="2" fill="#D4AF37" stroke="#1A1A1A" stroke-width="0.5" />

  <defs>
    <linearGradient id="gold_gradient" x1="4" y1="4" x2="28" y2="28" gradientUnits="userSpaceOnUse">
      <stop stop-color="#FFD700"/>
      <stop offset="0.5" stop-color="#D4AF37"/>
      <stop offset="1" stop-color="#B8860B"/>
    </linearGradient>
  </defs>
</svg>
